<svg width="1400" height="420" viewBox="0 0 1400 420" fill="none" xmlns="http://www.w3.org/2000/svg">
  <defs>
    <linearGradient id="bg" x1="0" y1="0" x2="1400" y2="420" gradientUnits="userSpaceOnUse">
      <stop stop-color="#020617"/>
      <stop offset="0.48" stop-color="#082f49"/>
      <stop offset="1" stop-color="#0f172a"/>
    </linearGradient>
    <linearGradient id="beam" x1="126" y1="46" x2="1248" y2="366" gradientUnits="userSpaceOnUse">
      <stop stop-color="#e0f2fe" stop-opacity="0"/>
      <stop offset="0.45" stop-color="#38bdf8" stop-opacity="0.85"/>
      <stop offset="1" stop-color="#7dd3fc" stop-opacity="0"/>
    </linearGradient>
    <radialGradient id="orb" cx="0" cy="0" r="1" gradientUnits="userSpaceOnUse" gradientTransform="translate(1050 174) rotate(90) scale(210 210)">
      <stop stop-color="#7dd3fc" stop-opacity="0.9"/>
      <stop offset="0.38" stop-color="#38bdf8" stop-opacity="0.25"/>
      <stop offset="1" stop-color="#38bdf8" stop-opacity="0"/>
    </radialGradient>
    <pattern id="grid" width="34" height="34" patternUnits="userSpaceOnUse">
      <path d="M34 0H0V34" stroke="#38bdf8" stroke-opacity="0.11" stroke-width="1"/>
    </pattern>
    <filter id="glow" x="-50%" y="-50%" width="200%" height="200%">
      <feGaussianBlur stdDeviation="6" result="blur"/>
      <feMerge>
        <feMergeNode in="blur"/>
        <feMergeNode in="SourceGraphic"/>
      </feMerge>
    </filter>
  </defs>

  <rect width="1400" height="420" rx="34" fill="url(#bg)"/>
  <rect width="1400" height="420" rx="34" fill="url(#grid)"/>
  <path d="M-30 321C177 264 270 65 478 111C684 156 747 326 979 267C1164 220 1217 91 1453 103" stroke="url(#beam)" stroke-width="2"/>
  <circle cx="1050" cy="174" r="222" fill="url(#orb)"/>

  <g opacity="0.9">
    <rect x="92" y="64" width="394" height="240" rx="18" fill="#020617" fill-opacity="0.72" stroke="#38bdf8" stroke-opacity="0.45"/>
    <rect x="118" y="91" width="342" height="20" rx="10" fill="#0f172a" stroke="#38bdf8" stroke-opacity="0.45"/>
    <rect x="118" y="137" width="110" height="78" rx="12" fill="#082f49" stroke="#7dd3fc" stroke-opacity="0.5"/>
    <rect x="246" y="137" width="214" height="78" rx="12" fill="#0f172a" stroke="#38bdf8" stroke-opacity="0.35"/>
    <rect x="118" y="235" width="342" height="42" rx="12" fill="#0f172a" stroke="#38bdf8" stroke-opacity="0.35"/>
    <path d="M139 176H208M276 162H430M276 187H397M139 256H430" stroke="#7dd3fc" stroke-width="5" stroke-linecap="round" opacity="0.75"/>
  </g>

  <g transform="translate(882 70)" filter="url(#glow)">
    <circle cx="150" cy="140" r="124" stroke="#38bdf8" stroke-opacity="0.72" stroke-width="2"/>
    <circle cx="150" cy="140" r="82" stroke="#7dd3fc" stroke-opacity="0.38" stroke-width="2"/>
    <circle cx="150" cy="140" r="10" fill="#e0f2fe"/>
    <path d="M150 16V264M26 140H274M63 53L237 227M237 53L63 227" stroke="#38bdf8" stroke-opacity="0.33"/>
    <circle cx="238" cy="52" r="8" fill="#7dd3fc"/>
    <circle cx="63" cy="226" r="7" fill="#38bdf8"/>
    <circle cx="31" cy="139" r="6" fill="#bae6fd"/>
  </g>

  <text x="90" y="353" fill="#7dd3fc" font-family="Consolas, 'JetBrains Mono', monospace" font-size="18" letter-spacing="2">LOCAL AGENT RUNTIME / EVALUATION HARNESS / APPLIED AI</text>
  <text x="540" y="156" fill="#e0f2fe" font-family="Consolas, 'JetBrains Mono', monospace" font-size="78" font-weight="700">ByteWise</text>
  <text x="546" y="204" fill="#7dd3fc" font-family="Consolas, 'JetBrains Mono', monospace" font-size="24">AI SYSTEMS LAB</text>
  <text x="546" y="246" fill="#cbd5e1" font-family="Consolas, 'JetBrains Mono', monospace" font-size="18">verify first -> benchmark -> ship reproducible systems</text>

  <g opacity="0.82">
    <rect x="542" y="278" width="138" height="34" rx="17" fill="#0f172a" stroke="#38bdf8" stroke-opacity="0.6"/>
    <rect x="694" y="278" width="128" height="34" rx="17" fill="#0f172a" stroke="#38bdf8" stroke-opacity="0.6"/>
    <rect x="836" y="278" width="132" height="34" rx="17" fill="#0f172a" stroke="#38bdf8" stroke-opacity="0.6"/>
    <text x="568" y="301" fill="#e0f2fe" font-family="Consolas, monospace" font-size="15">TypeScript</text>
    <text x="726" y="301" fill="#e0f2fe" font-family="Consolas, monospace" font-size="15">Python</text>
    <text x="875" y="301" fill="#e0f2fe" font-family="Consolas, monospace" font-size="15">Vue</text>
  </g>
</svg>
