<svg width="1600" height="600" viewBox="0 0 1600 600" fill="none" xmlns="http://www.w3.org/2000/svg" role="img" aria-labelledby="title desc">
  <title id="title">ByteWise project portfolio map</title>
  <desc id="desc">A Morandi themed project map showing the ByteWise agent, evaluation, research, and interface repositories.</desc>
  <defs>
    <linearGradient id="bg" x1="0" y1="0" x2="1600" y2="600" gradientUnits="userSpaceOnUse">
      <stop stop-color="#F7F3EC"/>
      <stop offset="0.55" stop-color="#ECE6DA"/>
      <stop offset="1" stop-color="#DDE7E8"/>
    </linearGradient>
    <filter id="shadow" x="-20%" y="-20%" width="140%" height="150%">
      <feDropShadow dx="0" dy="14" stdDeviation="18" flood-color="#8D8178" flood-opacity="0.15"/>
    </filter>
    <pattern id="grid" width="48" height="48" patternUnits="userSpaceOnUse">
      <path d="M 48 0 L 0 0 0 48" stroke="#B9C3BF" stroke-opacity="0.24" stroke-width="1"/>
    </pattern>
  </defs>

  <rect x="18" y="18" width="1564" height="564" rx="34" fill="url(#bg)" stroke="#C9BFB2" stroke-width="2"/>
  <rect x="18" y="18" width="1564" height="564" rx="34" fill="url(#grid)" opacity="0.65"/>

  <text x="96" y="104" fill="#2F3437" font-family="Segoe UI, Helvetica, Arial, sans-serif" font-size="48" font-weight="760">Project Portfolio</text>
  <text x="98" y="146" fill="#6F7772" font-family="Consolas, Menlo, monospace" font-size="22">agent runtime / evaluation systems / applied AI research / interface tools</text>

  <g stroke-width="4" stroke-linecap="round" opacity="0.78">
    <path d="M470 250C590 168 762 166 920 248" stroke="#8FA6B2"/>
    <path d="M470 350C608 428 770 435 924 352" stroke="#A8B5A2"/>
    <path d="M924 250C1030 180 1175 170 1304 260" stroke="#C2A091"/>
    <path d="M924 352C1040 430 1180 435 1304 338" stroke="#8FA6B2"/>
  </g>

  <g filter="url(#shadow)" font-family="Segoe UI, Helvetica, Arial, sans-serif">
    <rect x="96" y="196" width="374" height="150" rx="24" fill="#F9F6EF" stroke="#A69B8F" stroke-width="2"/>
    <rect x="126" y="226" width="74" height="74" rx="18" fill="#D7E2E7" stroke="#8FA6B2"/>
    <text x="226" y="246" fill="#2F3437" font-size="29" font-weight="740">omni-agent</text>
    <text x="226" y="286" fill="#6F7772" font-size="20">verification-native runtime</text>
    <text x="226" y="319" fill="#8D8178" font-size="18">TS / eval gates / memory</text>

    <rect x="96" y="372" width="374" height="128" rx="24" fill="#F9F6EF" stroke="#A69B8F" stroke-width="2"/>
    <rect x="126" y="404" width="74" height="64" rx="18" fill="#D9E1D3" stroke="#8E9C89"/>
    <text x="226" y="423" fill="#2F3437" font-size="28" font-weight="740">glaude-vibe-coder</text>
    <text x="226" y="462" fill="#6F7772" font-size="20">developer execution surface</text>

    <rect x="612" y="210" width="312" height="240" rx="32" fill="#E7DFD2" stroke="#A69B8F" stroke-width="2"/>
    <circle cx="768" cy="288" r="54" fill="#D7E2E7" stroke="#8FA6B2" stroke-width="2"/>
    <circle cx="768" cy="288" r="18" fill="#F9F6EF" stroke="#8FA6B2"/>
    <path d="M768 234V342M714 288H822" stroke="#8FA6B2" stroke-width="3"/>
    <text x="682" y="392" fill="#2F3437" font-size="30" font-weight="760">ByteWise Core</text>
    <text x="668" y="426" fill="#6F7772" font-size="19">spec - runtime - eval - artifact</text>

    <rect x="1060" y="190" width="384" height="148" rx="24" fill="#F9F6EF" stroke="#A69B8F" stroke-width="2"/>
    <rect x="1090" y="222" width="74" height="74" rx="18" fill="#E8D5CB" stroke="#C2A091"/>
    <text x="1190" y="242" fill="#2F3437" font-size="28" font-weight="740">swarm-eval-lab</text>
    <text x="1190" y="282" fill="#6F7772" font-size="20">agent strategy benchmarks</text>
    <text x="1190" y="315" fill="#8D8178" font-size="18">Python / scorecards / harnesses</text>

    <rect x="1060" y="368" width="384" height="138" rx="24" fill="#F9F6EF" stroke="#A69B8F" stroke-width="2"/>
    <rect x="1090" y="398" width="74" height="74" rx="18" fill="#D9E1D3" stroke="#8E9C89"/>
    <text x="1190" y="420" fill="#2F3437" font-size="26" font-weight="740">traffic-flow research</text>
    <text x="1190" y="459" fill="#6F7772" font-size="20">forecasting and explainability</text>
  </g>

  <g font-family="Consolas, Menlo, monospace" font-size="19" fill="#6F7772">
    <text x="98" y="548">DESIGN: local SVG assets only, no fragile external stat images</text>
    <text x="1078" y="548">PUBLIC REPOS: 18 / CORE LANES: 4</text>
  </g>
</svg>
